<svg id="visual" viewBox="0 0 900 600" width="900" height="600" xmlns="http://www.w3.org/2000/svg" xmlns:xlink="http://www.w3.org/1999/xlink" version="1.1"><rect x="0" y="0" width="900" height="600" fill="#ffffff"></rect><path d="M0 374L90 364L180 384L270 337L360 319L450 280L540 242L630 319L720 383L810 322L900 347L900 601L810 601L720 601L630 601L540 601L450 601L360 601L270 601L180 601L90 601L0 601Z" fill="#03dac5"></path><path d="M0 296L90 374L180 347L270 405L360 355L450 428L540 429L630 387L720 423L810 299L900 400L900 601L810 601L720 601L630 601L540 601L450 601L360 601L270 601L180 601L90 601L0 601Z" fill="#01c4b8"></path><path d="M0 508L90 504L180 453L270 415L360 469L450 439L540 411L630 385L720 396L810 411L900 396L900 601L810 601L720 601L630 601L540 601L450 601L360 601L270 601L180 601L90 601L0 601Z" fill="#0faea9"></path><path d="M0 558L90 554L180 473L270 558L360 515L450 459L540 493L630 530L720 535L810 565L900 524L900 601L810 601L720 601L630 601L540 601L450 601L360 601L270 601L180 601L90 601L0 601Z" fill="#1b9999"></path></svg>